<svg width="49" height="62" viewBox="0 0 49 62" fill="none" xmlns="http://www.w3.org/2000/svg">
<path d="M42.0723 0C45.7423 0.000161601 48.7147 2.97262 48.7148 6.64258V55.3545C48.7148 57.1174 48.0148 58.8083 46.7695 60.0537C45.5241 61.2992 43.8353 61.9999 42.0723 62H6.64258C4.87957 61.9999 3.19173 61.2992 1.94629 60.0537C0.700798 58.8082 4.93307e-05 57.1176 0 55.3545V15.1182C0 13.3578 0.700734 11.6664 1.94629 10.4209L10.4238 1.94629C11.6693 0.700799 13.3578 4.1334e-05 15.1182 0H42.0723ZM17.7148 11.0713C17.7148 14.7415 14.7415 17.7139 11.0713 17.7139H4.42871V55.3545C4.42876 55.944 4.66103 56.506 5.07617 56.9238C5.49128 57.3361 6.05593 57.5712 6.64258 57.5713H42.0723C42.6589 57.5712 43.2236 57.3361 43.6387 56.9238C44.0538 56.5059 44.2861 55.9439 44.2861 55.3545V6.64258C44.286 5.41943 43.2954 4.42894 42.0723 4.42871H17.7148V11.0713ZM15.7461 24.248C16.8975 23.0939 18.7695 23.0939 19.9209 24.248L24.0977 28.4258L28.2266 24.2969C29.378 23.1427 31.2499 23.1427 32.4014 24.2969C33.5556 25.4483 33.5555 27.3202 32.4014 28.4717L28.2734 32.5996L32.4014 36.7295C33.5551 37.8809 33.5554 39.752 32.4014 40.9033C31.2499 42.0575 29.378 42.0575 28.2266 40.9033L24.0977 36.7764L19.9209 40.9531C18.7695 42.1073 16.8975 42.1073 15.7461 40.9531C14.5921 39.8018 14.5923 37.9308 15.7461 36.7793L19.9229 32.5996L15.7461 28.4219C14.5923 27.2704 14.5921 25.3993 15.7461 24.248ZM5.34473 13.2861H11.0713C12.2947 13.2861 13.2861 12.2947 13.2861 11.0713V5.34766L5.34473 13.2861Z" fill="black"/>
</svg>
