<svg width="51" height="62" viewBox="0 0 51 62" fill="none" xmlns="http://www.w3.org/2000/svg">
<path d="M38.1562 0C41.4716 0 44.1572 2.68516 44.1572 6V7.63672C47.444 7.66987 50.0957 10.3415 50.0957 13.6357L50.1055 55.9971C50.1055 57.5895 49.4728 59.1173 48.3477 60.2422C47.2227 61.3669 45.6979 61.9989 44.1055 61.999H13.7461C12.1535 61.999 10.6289 61.3661 9.50391 60.2412C8.37884 59.1163 7.74614 57.5894 7.74609 55.9971H6.15332C4.56065 55.9971 3.03526 55.3642 1.91016 54.2393C0.785259 53.1144 0.152414 51.5873 0.152344 49.9951L0.00683594 36.832L4.00684 40.8633L4.15332 49.9951C4.15339 50.5275 4.3633 51.0347 4.73828 51.4121C5.11331 51.7845 5.62332 51.9971 6.15332 51.9971H38.1562C38.6863 51.9971 39.1963 51.7846 39.5713 51.4121C39.9463 51.0347 40.1562 50.5275 40.1562 49.9951V6C40.1562 4.89503 39.2614 4 38.1562 4H16.1543V9.99902C16.1543 13.3139 13.4687 15.999 10.1533 15.999H4.15332V18.7012L0.152344 22.5459V13.6543C0.152353 12.0644 0.785073 10.537 1.91016 9.41211L9.56836 1.75781C10.6934 0.632977 12.2186 0.000109992 13.8086 0H38.1562ZM44.1572 49.9951C44.1572 51.5874 43.5243 53.1144 42.3994 54.2393C41.2743 55.3642 39.7489 55.9971 38.1562 55.9971H11.7461C11.7461 56.5294 11.9562 57.0367 12.3311 57.4141C12.7061 57.7865 13.2161 57.999 13.7461 57.999L44.1055 58C44.6354 57.9999 45.1456 57.7874 45.5205 57.415C45.8955 57.0376 46.1055 56.5295 46.1055 55.9971L46.0957 13.6357C46.0957 12.5515 45.2336 11.6714 44.1572 11.6387V49.9951ZM10.2393 19.7266C10.9145 19.7296 11.5615 19.9992 12.0391 20.4766C12.5166 20.9541 12.787 21.6011 12.79 22.2764C12.7931 22.9517 12.5289 23.6012 12.0557 24.083L8.74316 27.3945H25.7412C26.4207 27.3945 27.0732 27.6651 27.5537 28.1455C28.034 28.6259 28.3037 29.2778 28.3037 29.957C28.3036 30.6363 28.0341 31.2882 27.5537 31.7686C27.0732 32.2489 26.4207 32.5186 25.7412 32.5186H8.74316L12.0557 35.8301C12.2936 36.0678 12.4825 36.3505 12.6113 36.6611C12.7401 36.9719 12.8066 37.3052 12.8066 37.6416C12.8066 37.978 12.7401 38.3113 12.6113 38.6221C12.4825 38.9328 12.2936 39.2153 12.0557 39.4531C11.8179 39.691 11.5354 39.8801 11.2246 40.0088C10.9139 40.1375 10.5805 40.2031 10.2441 40.2031C9.90779 40.2031 9.5744 40.1375 9.26367 40.0088C8.95292 39.88 8.67042 39.691 8.43262 39.4531L0.749023 31.7705C0.269598 31.2887 9.03226e-05 30.6366 0 29.957C-8.10686e-09 29.2773 0.269518 28.6244 0.749023 28.1426L8.43262 20.4609C8.91444 19.9878 9.56397 19.7236 10.2393 19.7266ZM4.98047 11.999H10.1533C11.2585 11.999 12.1533 11.104 12.1533 9.99902V4.83008L4.98047 11.999Z" fill="black"/>
</svg>
