<svg width="50" height="62" viewBox="0 0 50 62" fill="none" xmlns="http://www.w3.org/2000/svg">
<path d="M37.999 0C41.3139 2.6534e-05 43.999 2.68518 43.999 6V7.63574C47.3071 7.64375 49.9844 10.3259 49.9844 13.6357L49.9941 55.9971C49.9941 57.5895 49.3613 59.1173 48.2363 60.2422C47.1114 61.367 45.5865 61.999 43.9941 61.999H13.6387C12.0464 61.9989 10.5213 61.366 9.39648 60.2412C8.27179 59.1164 7.6397 57.5893 7.63965 55.9971H6C4.40753 55.9971 2.88277 55.3642 1.75781 54.2393C0.632938 53.1144 6.97023e-05 51.5874 0 49.9951V13.6543C9.81285e-06 12.0644 0.632849 10.537 1.75781 9.41211L9.41504 1.75781C10.5399 0.632977 12.0645 0.000110498 13.6543 0H37.999ZM43.999 49.9951C43.999 51.5874 43.366 53.1144 42.2412 54.2393C41.1163 55.3642 39.5915 55.9971 37.999 55.9971H11.6387C11.6387 56.5293 11.8489 57.0367 12.2236 57.4141C12.5985 57.7865 13.1088 57.9989 13.6387 57.999L43.9941 58C44.524 57.9999 45.0343 57.7875 45.4092 57.415C45.7842 57.0376 45.9941 56.5295 45.9941 55.9971L45.9844 13.6357C45.9844 12.5358 45.0971 11.6438 43.999 11.6357V49.9951ZM15.999 9.99902C15.999 13.3137 13.3148 15.9988 10 15.999H4V49.9951C4.00007 50.5275 4.21005 51.0347 4.58496 51.4121C4.95995 51.7846 5.47003 51.9971 6 51.9971H37.999C38.529 51.997 39.0391 51.7846 39.4141 51.4121C39.7889 51.0347 39.999 50.5274 39.999 49.9951V6C39.999 4.89509 39.1039 4.00009 37.999 4H15.999V9.99902ZM14.2227 21.9014C15.2626 20.8589 16.9532 20.8589 17.9932 21.9014L21.7656 25.6738L25.4951 21.9453C26.5351 20.9029 28.2257 20.9029 29.2656 21.9453C30.3077 22.9852 30.3077 24.675 29.2656 25.7148L25.5381 29.4434L29.2656 33.1729C30.308 34.2128 30.308 35.9034 29.2656 36.9434C28.2257 37.9858 26.5351 37.9857 25.4951 36.9434L21.7656 33.2158L17.9932 36.9883C16.9532 38.0307 15.2626 38.0307 14.2227 36.9883C13.1803 35.9483 13.1802 34.2577 14.2227 33.2178L17.9951 29.4434L14.2227 25.6709C13.1805 24.6311 13.1807 22.9413 14.2227 21.9014ZM4.82715 11.999H10C11.1049 11.9989 12 11.1039 12 9.99902V4.83008L4.82715 11.999Z" fill="black"/>
</svg>
