<svg width="62" height="62" viewBox="0 0 62 62" fill="none" xmlns="http://www.w3.org/2000/svg">
<path d="M61.1735 14.9154C60.9119 14.6536 60.6013 14.446 60.2595 14.3043C59.9176 14.1627 59.5512 14.0898 59.1812 14.0898C58.8111 14.0898 58.4447 14.1627 58.1029 14.3043C57.761 14.446 57.4504 14.6536 57.1889 14.9154L53.5455 18.5588V2.81794C53.5455 2.07058 53.2487 1.35382 52.7202 0.825356C52.1918 0.296889 51.475 0 50.7277 0C49.9803 0 49.2636 0.296889 48.7352 0.825356C48.2067 1.35382 47.9098 2.07058 47.9098 2.81794V18.5588L44.2663 14.9154C43.7363 14.3949 43.0222 14.1047 42.2794 14.1081C41.5366 14.1115 40.8251 14.408 40.2998 14.9333C39.7746 15.4586 39.478 16.1701 39.4746 16.9129C39.4713 17.6558 39.7614 18.3699 40.2819 18.8999L48.7326 27.3514C49.2627 27.8788 49.98 28.1748 50.7277 28.1748C51.4754 28.1748 52.1927 27.8788 52.7227 27.3514L61.1735 18.8999C61.4352 18.6383 61.6428 18.3278 61.7844 17.9859C61.9261 17.6441 61.999 17.2777 61.999 16.9076C61.999 16.5376 61.9261 16.1712 61.7844 15.8294C61.6428 15.4875 61.4352 15.177 61.1735 14.9154Z" fill="black"/>
<path d="M35.2794 12.6526C35.3683 12.2934 35.3856 11.9202 35.3303 11.5543C35.2749 11.1884 35.1481 10.837 34.957 10.5201C34.7658 10.2032 34.5141 9.92709 34.2163 9.7075C33.9184 9.4879 33.5802 9.32914 33.221 9.24026C27.8124 7.89809 22.1197 8.27713 16.9368 10.3246C11.7538 12.372 7.33889 15.9857 4.30756 20.6619C1.27622 25.3382 -0.220438 30.8438 0.0262557 36.4111C0.272949 41.9785 2.2507 47.3302 5.68375 51.7199C9.11681 56.1097 13.834 59.3187 19.1778 60.8997C24.5215 62.4806 30.2254 62.3547 35.4941 60.5393C40.7628 58.724 45.3338 55.3098 48.5697 50.7728C51.8056 46.2358 53.5452 40.802 53.5459 35.2292C53.5459 34.4818 53.249 33.7651 52.7206 33.2366C52.1921 32.7081 51.4754 32.4112 50.728 32.4112C49.9807 32.4112 49.264 32.7081 48.7355 33.2366C48.2071 33.7651 47.9102 34.4818 47.9102 35.2292C47.9045 39.6207 46.5293 43.9011 43.9762 47.4741C41.423 51.0471 37.819 53.7348 33.6662 55.1627C29.5134 56.5905 25.0187 56.6876 20.8082 55.4402C16.5976 54.1928 12.881 51.6632 10.176 48.2037C7.47107 44.7442 5.91246 40.5271 5.71734 36.1399C5.52222 31.7527 6.70031 27.4139 9.08749 23.728C11.4747 20.042 14.9521 17.1924 19.0352 15.5761C23.1184 13.9599 27.604 13.6575 31.8671 14.711C32.5925 14.8903 33.3595 14.7742 33.9994 14.3883C34.6392 14.0023 35.0996 13.378 35.2794 12.6526Z" fill="black"/>
<path d="M35.743 25.1695C34.9277 26.0318 33.5426 26.0825 32.6441 25.2878C31.8595 24.5862 30.8294 24.2015 29.7512 24.2015C27.3316 24.2015 25.368 26.0994 25.368 28.4284V32.6553H31.9428C33.1525 32.6553 34.1344 33.6022 34.1344 34.7688C34.1344 35.9354 33.1525 36.8823 31.9428 36.8823H25.368V43.2226C25.368 43.9623 25.2365 44.6767 24.991 45.3361H34.1344C35.3441 45.3361 36.326 46.2829 36.326 47.4495C36.326 48.6162 35.3441 49.563 34.1344 49.563H18.7932C17.5834 49.563 16.6016 48.6162 16.6016 47.4495C16.6016 46.2829 17.5834 45.3361 18.7932 45.3361C19.9985 45.3361 20.9848 44.3893 20.9848 43.2226V36.8823H18.7932C17.5834 36.8823 16.6016 35.9354 16.6016 34.7688C16.6016 33.6022 17.5834 32.6553 18.7932 32.6553H20.9848V28.4284C20.9848 23.7661 24.9165 19.9746 29.7512 19.9746C31.9384 19.9746 34.0248 20.7608 35.6247 22.1853C36.5101 22.9757 36.567 24.3156 35.743 25.1695Z" fill="black"/>
</svg>
