<svg width="62" height="62" viewBox="0 0 62 62" fill="none" xmlns="http://www.w3.org/2000/svg">
<path d="M40.3012 13.2589C40.5628 13.5207 40.8734 13.7283 41.2152 13.8699C41.5571 14.0116 41.9235 14.0845 42.2935 14.0845C42.6636 14.0845 43.03 14.0116 43.3718 13.8699C43.7137 13.7283 44.0242 13.5207 44.2858 13.2589L47.9291 9.61561V25.356C47.9291 26.1033 48.226 26.82 48.7545 27.3485C49.2829 27.8769 49.9996 28.1738 50.747 28.1738C51.4943 28.1738 52.211 27.8769 52.7395 27.3485C53.2679 26.82 53.5648 26.1033 53.5648 25.356V9.61561L57.2083 13.2589C57.7383 13.7794 58.4524 14.0695 59.1952 14.0662C59.9381 14.0628 60.6495 13.7662 61.1748 13.241C61.7 12.7157 61.9966 12.0043 62 11.2614C62.0033 10.5186 61.7132 9.80449 61.1927 9.27448L52.742 0.823317C52.212 0.295938 51.4947 -0.000118833 50.747 -0.000118833C49.9993 -0.000118833 49.282 0.295938 48.7519 0.823317L40.3012 9.27448C40.0395 9.53606 39.8319 9.84664 39.6903 10.1885C39.5486 10.5303 39.4757 10.8967 39.4757 11.2667C39.4757 11.6367 39.5486 12.0031 39.6903 12.3449C39.8319 12.6868 40.0395 12.9973 40.3012 13.2589Z" fill="black"/>
<path d="M35.2792 12.6515C35.3681 12.2923 35.3854 11.9191 35.3301 11.5532C35.2748 11.1873 35.1479 10.8359 34.9568 10.519C34.7657 10.2022 34.514 9.92607 34.2161 9.70648C33.9183 9.4869 33.5801 9.32813 33.2209 9.23926C27.8122 7.89713 22.1196 8.27616 16.9367 10.3235C11.7538 12.3709 7.33886 15.9845 4.30754 20.6606C1.27621 25.3366 -0.220437 30.8421 0.0262556 36.4093C0.272948 41.9765 2.25069 47.328 5.68373 51.7176C9.11677 56.1072 13.834 59.3162 19.1777 60.8971C24.5214 62.478 30.2252 62.352 35.4939 60.5368C40.7626 58.7215 45.3336 55.3074 48.5695 50.7705C51.8054 46.2336 53.545 40.8 53.5457 35.2274C53.5457 34.48 53.2488 33.7633 52.7203 33.2348C52.1919 32.7064 51.4752 32.4095 50.7278 32.4095C49.9805 32.4095 49.2637 32.7064 48.7353 33.2348C48.2068 33.7633 47.91 34.48 47.91 35.2274C47.9043 39.6187 46.5291 43.899 43.976 47.4719C41.4228 51.0448 37.8188 53.7324 33.666 55.1602C29.5133 56.5881 25.0186 56.6851 20.8081 55.4378C16.5976 54.1904 12.881 51.6609 10.176 48.2015C7.47104 44.7421 5.91243 40.5251 5.71731 36.1381C5.5222 31.751 6.70028 27.4124 9.08745 23.7265C11.4746 20.0406 14.952 17.1911 19.0351 15.5749C23.1183 13.9587 27.6038 13.6563 31.867 14.7099C32.5924 14.8892 33.3593 14.7731 33.9992 14.3871C34.6391 14.0011 35.0995 13.3768 35.2792 12.6515Z" fill="black"/>
<path d="M35.7429 25.1683C34.9277 26.0306 33.5426 26.0813 32.644 25.2867C31.8594 24.5851 30.8294 24.2004 29.7511 24.2004C27.3316 24.2004 25.3679 26.0982 25.3679 28.4272V32.654H31.9427C33.1525 32.654 34.1343 33.6008 34.1343 34.7674C34.1343 35.934 33.1525 36.8808 31.9427 36.8808H25.3679V43.2209C25.3679 43.9606 25.2364 44.6749 24.991 45.3343H34.1343C35.3441 45.3343 36.3259 46.2811 36.3259 47.4477C36.3259 48.6143 35.3441 49.5611 34.1343 49.5611H18.7932C17.5834 49.5611 16.6016 48.6143 16.6016 47.4477C16.6016 46.2811 17.5834 45.3343 18.7932 45.3343C19.9985 45.3343 20.9847 44.3875 20.9847 43.2209V36.8808H18.7932C17.5834 36.8808 16.6016 35.934 16.6016 34.7674C16.6016 33.6008 17.5834 32.654 18.7932 32.654H20.9847V28.4272C20.9847 23.7651 24.9165 19.9736 29.7511 19.9736C31.9383 19.9736 34.0247 20.7598 35.6246 22.1842C36.51 22.9746 36.567 24.3145 35.7429 25.1683Z" fill="black"/>
</svg>
