<svg width="49" height="62" viewBox="0 0 49 62" fill="none" xmlns="http://www.w3.org/2000/svg">
<path d="M42.2441 0C45.9138 0 48.8856 2.97252 48.8857 6.64258V55.3535C48.8857 57.1166 48.1858 58.8082 46.9404 60.0537C45.6951 61.2992 44.007 62 42.2441 62H6.82031C5.05739 62 3.36842 61.2992 2.12305 60.0537C0.87783 58.8082 0.177734 57.1165 0.177734 55.3535L0.0166016 40.7793L4.44434 45.2441L4.60547 55.3535C4.60547 55.9431 4.83879 56.5049 5.25391 56.9229C5.66904 57.3353 6.23362 57.5713 6.82031 57.5713H42.2441C42.8308 57.5713 43.3955 57.3352 43.8105 56.9229C44.2255 56.5049 44.458 55.9429 44.458 55.3535V6.64258C44.4579 5.41931 43.4673 4.42876 42.2441 4.42871H17.8896V11.0713C17.8896 14.7414 14.9177 17.7138 11.248 17.7139H4.60547V20.7061L0.177734 24.9619V15.1182C0.177734 13.3579 0.877752 11.6664 2.12305 10.4209L10.6006 1.94531C11.8459 0.700034 13.534 5.32284e-05 15.2939 0H42.2441ZM11.334 21.8398C12.0816 21.8432 12.7975 22.1422 13.3262 22.6709C13.8547 23.1996 14.1538 23.9155 14.1572 24.6631C14.1606 25.4107 13.8684 26.1297 13.3447 26.6631L9.67773 30.3301H28.4932C29.2452 30.3301 29.9662 30.6293 30.498 31.1611C31.0299 31.693 31.3291 32.4148 31.3291 33.167C31.329 33.9191 31.0298 34.6401 30.498 35.1719C29.9662 35.7037 29.2453 36.0029 28.4932 36.0029H9.67773L13.3447 39.6699C13.608 39.9331 13.8165 40.2459 13.959 40.5898C14.1015 40.9339 14.1748 41.3033 14.1748 41.6758C14.1748 42.0481 14.1015 42.4168 13.959 42.7607C13.8165 43.1047 13.608 43.4174 13.3447 43.6807C13.0815 43.944 12.7687 44.1533 12.4248 44.2959C12.0808 44.4385 11.7113 44.5117 11.3389 44.5117C10.9666 44.5117 10.5978 44.4384 10.2539 44.2959C9.90994 44.1533 9.5972 43.944 9.33398 43.6807L0.829102 35.1748C0.298438 34.6414 0.000109923 33.9194 0 33.167C-8.97344e-09 32.4144 0.29834 31.6917 0.829102 31.1582L9.33398 22.6523C9.86738 22.1285 10.5864 21.8365 11.334 21.8398ZM5.52148 13.2852H11.248C12.4713 13.2851 13.4619 12.2947 13.4619 11.0713V5.34766L5.52148 13.2852Z" fill="black"/>
</svg>
